<svg width="135.57" height="135.57" enable-background="new 0 0 135.57 89.963" version="1.1" viewBox="0 0 135.57 135.57" xmlns="http://www.w3.org/2000/svg">
  <path d="m2.6895 22.808c-4.092 0.943-2.213 6.415-2.518 9.409v76.999c0 4.734 5.297 4.734 5.297 0v-10.202c40.824-0.29 84.29 0.084 125.13 0l0.099 10.202c0 4.504 4.873 4.734 4.873-0.086v-75.356c-2.227-2.521-5.802 0.375-4.873 3.28v12.815l-77.923 0.448v18.747h-15.767v-18.746h-31.539c-0.645-8.696 0.994-18.158-0.727-26.649-0.516-0.562-1.284-0.91-2.052-0.861zm2.779 32.317h27.488v13.939h-27.488zm125.23 0v13.939h-73.033v-13.939zm0.106 19.189v19.45h-125.38v-19.45z" fill="#fff"/>
</svg>
