<?xml version="1.0" encoding="UTF-8" standalone="no"?>
<svg
   xmlns:dc="http://purl.org/dc/elements/1.1/"
   xmlns:cc="http://creativecommons.org/ns#"
   xmlns:rdf="http://www.w3.org/1999/02/22-rdf-syntax-ns#"
   xmlns:svg="http://www.w3.org/2000/svg"
   xmlns="http://www.w3.org/2000/svg"
   id="svg8"
   version="1.1"
   viewBox="0 0 47.82621 31.73712"
   height="31.73712mm"
   width="47.82621mm">
  <defs
     id="defs2" />
  <metadata
     id="metadata5">
    <rdf:RDF>
      <cc:Work
         rdf:about="">
        <dc:format>image/svg+xml</dc:format>
        <dc:type
           rdf:resource="http://purl.org/dc/dcmitype/StillImage" />
        <dc:title></dc:title>
      </cc:Work>
    </rdf:RDF>
  </metadata>
  <g
     transform="translate(-4.2821536e-8,-265.26288)"
     id="layer1">
    <g
       transform="matrix(0.26458333,0,0,0.26458333,19.953024,172.18801)"
       id="g870">
      <path
         id="path815"
         d="m -71.826343,351.78523 c -5.455866,1.25758 -2.9509,8.55341 -3.357422,12.54492 l 10e-7,102.66512 c 0,6.31346 7.062493,6.31346 7.062493,0 v -13.60263 c 54.431471,-0.38627 112.386701,0.11197 166.839836,1e-5 l 0.13085,13.60262 c 0,6.0061 6.498045,6.31346 6.498045,-0.11432 l 1e-5,-100.47463 c -2.96808,-3.3608 -7.735445,0.49982 -6.498045,4.37305 l -1e-5,17.08789 -103.8964652,0.59766 -10e-6,24.99412 H -26.06853 v -24.99413 h -42.052741 c -0.85969,-11.59563 1.325641,-24.21139 -0.968744,-35.5332 -0.688125,-0.74887 -1.712421,-1.21221 -2.736328,-1.14648 z m 3.705072,43.08787 36.650401,2e-5 v 18.58592 h -36.650401 z m 166.970686,0 v 18.58594 l -97.3776252,2e-5 v -18.58594 z m 0.14064,25.58595 v 25.9336 h -167.17382 v -25.9336 z" />
      <g
         id="g817">
</g>
      <g
         id="g819">
</g>
      <g
         id="g821">
</g>
      <g
         id="g823">
</g>
      <g
         id="g825">
</g>
      <g
         id="g827">
</g>
      <g
         id="g829">
</g>
      <g
         id="g831">
</g>
      <g
         id="g833">
</g>
      <g
         id="g835">
</g>
      <g
         id="g837">
</g>
      <g
         id="g839">
</g>
      <g
         id="g841">
</g>
      <g
         id="g843">
</g>
      <g
         id="g845">
</g>
    </g>
  </g>
</svg>
