<?xml version="1.0" encoding="utf-8"?>
<!-- Generator: Adobe Illustrator 16.0.3, SVG Export Plug-In . SVG Version: 6.00 Build 0)  -->
<!DOCTYPE svg PUBLIC "-//W3C//DTD SVG 1.1//EN" "http://www.w3.org/Graphics/SVG/1.1/DTD/svg11.dtd">
<svg version="1.1" id="Capa_1" xmlns="http://www.w3.org/2000/svg" xmlns:xlink="http://www.w3.org/1999/xlink" x="0px" y="0px"
	 width="625.157px" height="139.681px" viewBox="0 0 625.157 139.681" enable-background="new 0 0 625.157 139.681"
	 xml:space="preserve">
<path fill="none" stroke="#0065C2" stroke-width="13.6769" stroke-miterlimit="10" d="M123.97,69.412
	C77.124,69.412,45.132,39.705,0,36.277"/>
<path fill="#00AAF4" d="M217.867,71.198l3.223-59.486c0,0-16.924,0-27.208,0c-16.281,0-23.637,29.564-39.847,38.205
	c-13.483,7.187-25.28,7.34-32.135,7.34s-7.355,12.584-7.355,12.584s0.5,12.585,7.355,12.585s18.652,0.152,32.135,7.339
	c16.21,8.641,23.566,38.205,39.847,38.205c10.284,0,27.208,0,27.208,0l-3.456-56.774L217.867,71.198z"/>
<path fill="#0080DB" d="M252.796,69.84c0-20.368-2.89-38.694-7.498-51.46V0h-15.639c-12.778,0-23.137,31.269-23.137,69.84
	c0,38.572,10.359,69.841,23.137,69.841h15.639v-18.38C249.906,108.535,252.796,90.208,252.796,69.84z"/>
<ellipse fill="#ABDCF2" cx="244.227" cy="69.84" rx="23.137" ry="69.841"/>
<rect x="244.227" y="34.865" fill="#0065C2" width="49.488" height="18.107"/>
<circle fill="#0065C2" cx="293.715" cy="43.919" r="9.053"/>
<rect x="244.227" y="86.709" fill="#0065C2" width="49.488" height="18.106"/>
<circle fill="#0065C2" cx="293.715" cy="95.764" r="9.053"/>
<path fill="none" stroke="#0065C2" stroke-width="13.6769" stroke-miterlimit="10" d="M488.245,69.412
	c46.846,0,91.779,29.779,136.912,26.351"/>
<path fill="#00AAF4" d="M490.315,57.256c-6.855,0-18.652-0.153-32.135-7.34c-16.21-8.641-23.565-38.205-39.848-38.205
	c-10.283,0-27.207,0-27.207,0l3.656,56.626l-0.425-0.006l-3.231,59.637c0,0,16.924,0,27.207,0c16.282,0,23.638-29.564,39.848-38.205
	c13.483-7.187,25.28-7.339,32.135-7.339s7.355-12.585,7.355-12.585S497.17,57.256,490.315,57.256z"/>
<path fill="#0080DB" d="M359.418,69.84c0-20.368,2.891-38.694,7.498-51.46V0h15.64c12.778,0,23.137,31.269,23.137,69.84
	c0,38.572-10.358,69.841-23.137,69.841h-15.64v-18.38C362.309,108.535,359.418,90.208,359.418,69.84z"/>
<ellipse fill="#00AAF4" cx="367.987" cy="69.84" rx="23.138" ry="69.841"/>
<ellipse fill="#0065C2" cx="243.82" cy="43.919" rx="2.999" ry="9.053"/>
<ellipse fill="#0065C2" cx="243.82" cy="95.764" rx="2.999" ry="9.053"/>
<g>
	<ellipse fill="#0065C2" cx="364.988" cy="43.919" rx="2.999" ry="9.053"/>
</g>
<g>
	<ellipse fill="#0065C2" cx="364.988" cy="95.764" rx="2.999" ry="9.053"/>
</g>
</svg>
