<?xml version="1.0" encoding="utf-8"?>
<!-- Generator: Adobe Illustrator 16.0.3, SVG Export Plug-In . SVG Version: 6.00 Build 0)  -->
<!DOCTYPE svg PUBLIC "-//W3C//DTD SVG 1.1//EN" "http://www.w3.org/Graphics/SVG/1.1/DTD/svg11.dtd">
<svg version="1.1" id="Capa_1" xmlns="http://www.w3.org/2000/svg" xmlns:xlink="http://www.w3.org/1999/xlink" x="0px" y="0px"
	 width="600px" height="800px" viewBox="0 0 600 800" enable-background="new 0 0 600 800" xml:space="preserve">
<g>
	<path fill="#FFFFFF" stroke="#000000" stroke-miterlimit="10" d="M233.66,390.9v-19.961h103.327V184.247H56.36v186.693h103.327
		V390.9H0v224.854h17.612V408.513h564.775v207.241H600V390.9H233.66z M117.879,201.859l25.592,25.592l12.453-12.453l-13.139-13.139
		h176.588v113.894H256.68l-81.983-81.983l-12.453,12.453l69.53,69.53H73.973V201.859H117.879z M73.973,333.366h245.401v19.96H73.973
		V333.366z M177.299,370.939h38.748V390.9h-38.748V370.939z"/>
	<path fill="#FFFFFF" stroke="#000000" stroke-miterlimit="10" d="M338.16,615.754h17.613V596.38h189.041v19.374h17.612v-187.28
		H338.16V615.754z M355.773,578.768v-57.535h189.041v57.535H355.773z M544.814,446.086v57.534H355.773v-57.534H544.814z"/>
	<rect x="431.507" y="541.193" fill="#FFFFFF" stroke="#000000" stroke-miterlimit="10" width="46.967" height="17.613"/>
	<rect x="431.507" y="466.047" fill="#FFFFFF" stroke="#000000" stroke-miterlimit="10" width="46.967" height="17.612"/>
	<rect x="431.507" y="362.72" fill="#FFFFFF" stroke="#000000" stroke-miterlimit="10" width="131.507" height="17.612"/>
	<rect x="431.507" y="334.54" fill="#FFFFFF" stroke="#000000" stroke-miterlimit="10" width="131.507" height="17.613"/>
	<rect x="431.507" y="306.36" fill="#FFFFFF" stroke="#000000" stroke-miterlimit="10" width="112.72" height="17.613"/>
</g>
</svg>
