<svg width="40.683mm" height="40.683mm" version="1.1" viewBox="0 0 40.683 40.683" xmlns="http://www.w3.org/2000/svg">
  <g transform="translate(8.1171 -256.32)">
    <g transform="translate(-31.433 6.2111)">
      <g fill="#fff" stroke-width=".06189">
        <path d="m45.061 278.82h-10.72v-22.342h16.896v2.8857h0.92835v-3.8141h-18.753v24.199h11.648"/>
        <path d="m54.146 260.03v-6.4627h-5.9414v-1.4854h-3.0149c-0.21742-1.1268-1.2111-1.9805-2.4005-1.9805-1.1893 0-2.183 0.85364-2.4005 1.9805h-3.0149v1.4854h-5.9414v28.16h13.762v-0.92835h-12.834v-26.303h5.0131v1.0212h0.92835v-2.5065h2.9707v-0.46418c0-0.83606 0.68023-1.5163 1.5163-1.5163 0.83607 0 1.5163 0.68023 1.5163 1.5163v0.46418h2.9707v2.5065h0.92835v-1.0212h5.0131v5.1669z"/>
        <rect x="42.294" y="252.09" width=".99024" height=".92835"/>
        <rect x="41.304" y="258.52" width="7.9218" height=".92835"/>
        <rect x="36.353" y="258.52" width="3.9608" height=".92835"/>
        <rect x="36.353" y="261" width="8.4168" height=".92835"/>
        <rect x="39.324" y="263.47" width="4.6238" height=".92834"/>
        <rect x="36.353" y="263.47" width="1.9806" height=".92835"/>
        <rect x="36.353" y="265.95" width="6.4365" height=".92835"/>
        <rect x="36.353" y="268.42" width="5.5986" height=".92834"/>
        <rect x="36.353" y="270.9" width="3.4656" height=".92835"/>
        <rect x="36.353" y="273.38" width="4.1963" height=".92834"/>
        <rect x="39.324" y="275.85" width="2.1516" height=".92834"/>
        <rect x="36.353" y="275.85" width="1.9806" height=".92835"/>
      </g>
      <g transform="matrix(.23275 0 0 .23275 32.251 259.16)">
        <path d="m56.768 73.538c-6.185 0-11.217-5.026-11.217-11.218 0-1.541 1.256-2.802 2.803-2.802 1.546 0 2.802 1.261 2.802 2.802 0 3.097 2.517 5.62 5.613 5.62 1.55 0 2.802 1.256 2.802 2.801-2e-3 1.547-1.244 2.797-2.803 2.797zm44.59-62.953v100.62c0 13.616-10.492 24.673-23.387 24.673-12.9 0-23.38-11.08-23.38-24.673v-26.677c-11.33-1.1-20.242-10.6-20.242-22.205 0-11.141 17.859-49.327 19.895-53.642 0.128-0.273 0.38-0.418 0.588-0.616 1.982-5.501 12.869-8.062 23.14-8.062 11.339 0 23.554 3.086 23.554 9.86 8e-3 0.255-0.123 0.471-0.168 0.725zm-41.355-0.656c0.432 1.064 6.416 4.18 17.969 4.18 11.144 0 17.051-2.886 17.85-4.191 0-0.091 0.032-0.156 0.044-0.241-0.651-1.127-6.587-4.085-17.877-4.085-11.571 0-17.543 3.097-17.986 4.337zm-3.235 69.212c9.282 0 16.821-7.542 16.821-16.82 0-7.266-10.516-31.918-16.821-45.773-6.297 13.854-16.821 38.507-16.821 45.772 0 9.278 7.554 16.821 16.821 16.821zm38.988 32.061v-8.57h-10.966c-1.543 0-2.802-1.263-2.802-2.802 0-1.553 1.259-2.801 2.802-2.801h10.966v-13.023h-10.966c-1.543 0-2.802-1.258-2.802-2.802 0-1.554 1.259-2.802 2.802-2.802h10.966v-13.034h-10.966c-1.543 0-2.802-1.256-2.802-2.801 0-1.546 1.259-2.802 2.802-2.802h10.966v-13.029h-10.966c-1.543 0-2.802-1.253-2.802-2.802 0-1.541 1.259-2.802 2.802-2.802h10.966v-24.585c-4.605 2.129-11.295 3.166-17.784 3.166-5.057 0-10.248-0.646-14.49-1.939 5.905 13.168 15.715 36.282 15.715 44.542 0 11.202-8.263 20.421-19.003 22.084v26.791c0 10.518 7.978 19.076 17.777 19.076 9.808 4e-3 17.785-8.538 17.785-19.065z" fill="#fff"/>
      </g>
    </g>
  </g>
</svg>
