<?xml version="1.0" encoding="UTF-8" standalone="no"?>
<svg
   xmlns:dc="http://purl.org/dc/elements/1.1/"
   xmlns:cc="http://creativecommons.org/ns#"
   xmlns:rdf="http://www.w3.org/1999/02/22-rdf-syntax-ns#"
   xmlns:svg="http://www.w3.org/2000/svg"
   xmlns="http://www.w3.org/2000/svg"
   id="svg8"
   version="1.1"
   viewBox="0 0 24.449305 40.683498"
   height="40.683498mm"
   width="24.449305mm">
  <defs
     id="defs2" />
  <metadata
     id="metadata5">
    <rdf:RDF>
      <cc:Work
         rdf:about="">
        <dc:format>image/svg+xml</dc:format>
        <dc:type
           rdf:resource="http://purl.org/dc/dcmitype/StillImage" />
        <dc:title></dc:title>
      </cc:Work>
    </rdf:RDF>
  </metadata>
  <g
     transform="translate(0,-256.3165)"
     id="layer1">
    <g
       transform="matrix(0.06188972,0,0,0.06188972,26.976786,250.10541)"
       id="g4755">
</g>
    <g
       transform="matrix(0.06188972,0,0,0.06188972,26.976786,250.10541)"
       id="g4757">
</g>
    <g
       transform="matrix(0.06188972,0,0,0.06188972,26.976786,250.10541)"
       id="g4759">
</g>
    <g
       transform="matrix(0.06188972,0,0,0.06188972,26.976786,250.10541)"
       id="g4761">
</g>
    <g
       transform="matrix(0.06188972,0,0,0.06188972,26.976786,250.10541)"
       id="g4763">
</g>
    <g
       transform="matrix(0.06188972,0,0,0.06188972,26.976786,250.10541)"
       id="g4765">
</g>
    <g
       transform="matrix(0.06188972,0,0,0.06188972,26.976786,250.10541)"
       id="g4767">
</g>
    <g
       transform="matrix(0.06188972,0,0,0.06188972,26.976786,250.10541)"
       id="g4769">
</g>
    <g
       transform="matrix(0.06188972,0,0,0.06188972,26.976786,250.10541)"
       id="g4771">
</g>
    <g
       transform="matrix(0.06188972,0,0,0.06188972,26.976786,250.10541)"
       id="g4773">
</g>
    <g
       transform="matrix(0.06188972,0,0,0.06188972,26.976786,250.10541)"
       id="g4775">
</g>
    <g
       transform="matrix(0.06188972,0,0,0.06188972,26.976786,250.10541)"
       id="g4777">
</g>
    <g
       transform="matrix(0.06188972,0,0,0.06188972,26.976786,250.10541)"
       id="g4779">
</g>
    <g
       transform="matrix(0.06188972,0,0,0.06188972,26.976786,250.10541)"
       id="g4781">
</g>
    <g
       transform="matrix(0.06188972,0,0,0.06188972,26.976786,250.10541)"
       id="g4783">
</g>
    <g
       transform="translate(-31.432846,6.2110916)"
       id="g6810">
      <path
         id="path4719"
         d="M 45.061401,278.82224 H 34.341663 v -22.34219 h 16.895893 v 2.88574 h 0.928346 v -3.81408 H 33.413317 v 24.19888 h 11.648084"
         style="stroke-width:0.06188972" />
      <path
         id="path4715"
         d="m 54.146373,260.03397 v -6.46274 H 48.20496 v -1.48535 h -3.014896 c -0.217418,-1.12683 -1.21112,-1.98047 -2.400455,-1.98047 -1.189334,0 -2.183036,0.85364 -2.400454,1.98047 h -3.014896 v 1.48535 h -5.941413 v 28.15983 h 13.76219 v -0.92835 H 32.361192 v -26.30313 h 5.013067 v 1.02118 h 0.928346 v -2.50653 h 2.970706 v -0.46418 c 0,-0.83606 0.68023,-1.51629 1.516298,-1.51629 0.836069,0 1.516299,0.68023 1.516299,1.51629 v 0.46418 h 2.970706 v 2.50653 h 0.928346 v -1.02118 h 5.013067 v 5.16689 z"
         style="stroke-width:0.06188972" />
      <rect
         id="rect4717"
         height="0.9283458"
         width="0.99023551"
         y="252.08588"
         x="42.294491"
         style="stroke-width:0.06188972" />
      <rect
         id="rect4721"
         height="0.9283458"
         width="7.9217606"
         y="258.5224"
         x="41.304379"
         style="stroke-width:0.06188972" />
      <rect
         id="rect4723"
         height="0.9283458"
         width="3.9608183"
         y="258.5224"
         x="36.353077"
         style="stroke-width:0.06188972" />
      <rect
         id="rect4727"
         height="0.9283458"
         width="8.4168158"
         y="260.99799"
         x="36.353077"
         style="stroke-width:0.06188972" />
      <rect
         id="rect4729"
         height="0.92834473"
         width="4.6238432"
         y="263.4736"
         x="39.323723"
         style="stroke-width:0.06188972" />
      <rect
         id="rect4731"
         height="0.9283458"
         width="1.9805948"
         y="263.4736"
         x="36.353077"
         style="stroke-width:0.06188972" />
      <rect
         id="rect4735"
         height="0.9283458"
         width="6.4365311"
         y="265.94919"
         x="36.353077"
         style="stroke-width:0.06188972" />
      <rect
         id="rect4739"
         height="0.92834473"
         width="5.5985861"
         y="268.42477"
         x="36.353077"
         style="stroke-width:0.06188972" />
      <rect
         id="rect4743"
         height="0.9283458"
         width="3.4656386"
         y="270.90036"
         x="36.353077"
         style="stroke-width:0.06188972" />
      <rect
         id="rect4747"
         height="0.9283458"
         width="7.4265809"
         y="273.37595"
         x="36.353077"
         style="stroke-width:0.06188972" />
      <rect
         id="rect4749"
         height="0.92834473"
         width="2.1515999"
         y="275.85153"
         x="39.323723"
         style="stroke-width:0.06188972" />
      <rect
         id="rect4751"
         height="0.9283458"
         width="1.9805948"
         y="275.85153"
         x="36.353077"
         style="stroke-width:0.06188972" />
      <g
         id="g6189"
         transform="matrix(0.2327548,0,0,0.2327548,32.251405,259.16335)">
        <g
           id="g6157">
	<path
   id="path6155"
   d="m 56.768,73.538 c -6.185,0 -11.217,-5.026 -11.217,-11.218 0,-1.541 1.256,-2.802 2.803,-2.802 1.546,0 2.802,1.261 2.802,2.802 0,3.097 2.517,5.62 5.613,5.62 1.55,0 2.802,1.256 2.802,2.801 -0.002,1.547 -1.244,2.797 -2.803,2.797 z m 44.59,-62.953 v 100.617 c 0,13.616 -10.492,24.673 -23.387,24.673 -12.9,0 -23.38,-11.08 -23.38,-24.673 V 84.525 C 43.261,83.425 34.349,73.925 34.349,62.32 34.349,51.179 52.208,12.993 54.244,8.678 54.372,8.405 54.624,8.26 54.832,8.062 56.814,2.561 67.701,0 77.972,0 c 11.339,0 23.554,3.086 23.554,9.86 0.008,0.255 -0.123,0.471 -0.168,0.725 z M 60.003,9.929 c 0.432,1.064 6.416,4.18 17.969,4.18 11.144,0 17.051,-2.886 17.85,-4.191 0,-0.091 0.032,-0.156 0.044,-0.241 C 95.215,8.55 89.279,5.592 77.989,5.592 66.418,5.592 60.446,8.689 60.003,9.929 Z m -3.235,69.212 c 9.282,0 16.821,-7.542 16.821,-16.82 0,-7.266 -10.516,-31.918 -16.821,-45.773 -6.297,13.854 -16.821,38.507 -16.821,45.772 0,9.278 7.554,16.821 16.821,16.821 z m 38.988,32.061 v -8.57 H 84.79 c -1.543,0 -2.802,-1.263 -2.802,-2.802 0,-1.553 1.259,-2.801 2.802,-2.801 H 95.756 V 84.006 H 84.79 c -1.543,0 -2.802,-1.258 -2.802,-2.802 0,-1.554 1.259,-2.802 2.802,-2.802 H 95.756 V 65.368 H 84.79 c -1.543,0 -2.802,-1.256 -2.802,-2.801 0,-1.546 1.259,-2.802 2.802,-2.802 H 95.756 V 46.736 H 84.79 c -1.543,0 -2.802,-1.253 -2.802,-2.802 0,-1.541 1.259,-2.802 2.802,-2.802 H 95.756 V 16.547 c -4.605,2.129 -11.295,3.166 -17.784,3.166 -5.057,0 -10.248,-0.646 -14.49,-1.939 5.905,13.168 15.715,36.282 15.715,44.542 0,11.202 -8.263,20.421 -19.003,22.084 v 26.791 c 0,10.518 7.978,19.076 17.777,19.076 9.808,0.004 17.785,-8.538 17.785,-19.065 z" />

</g>
        <g
           id="g6159">
</g>
        <g
           id="g6161">
</g>
        <g
           id="g6163">
</g>
        <g
           id="g6165">
</g>
        <g
           id="g6167">
</g>
        <g
           id="g6169">
</g>
        <g
           id="g6171">
</g>
        <g
           id="g6173">
</g>
        <g
           id="g6175">
</g>
        <g
           id="g6177">
</g>
        <g
           id="g6179">
</g>
        <g
           id="g6181">
</g>
        <g
           id="g6183">
</g>
        <g
           id="g6185">
</g>
        <g
           id="g6187">
</g>
      </g>
    </g>
  </g>
</svg>
