<svg version="1.1" viewBox="-42 0 512 512" xmlns="http://www.w3.org/2000/svg">
  <path d="m206.37 5.9648c-53.715 0.64999-103.13 43.311-111.62 96.414-6.7156 36.759 4.8384 76.263 31.394 102.79 25.109 26.394 63.179 39.629 99.078 34.689 42.511-4.7843 80.644-35.326 95.269-75.486 14.598-38.373 7.1852-84.194-19.364-115.58-22.807-28.201-58.477-44.379-94.761-42.826zm2.8066 17.92c47.178-1.7703 92.06 35.505 99.123 82.139 6.1915 33.72-6.4066 70.236-32.715 92.393-31.14 28.003-80.662 32.511-116.23 10.314-28.139-16.722-47.354-47.759-48.346-80.648-1.7636-31.636 12.675-63.55 37.825-82.887 16.994-13.557 38.554-21.425 60.345-21.31z" fill="#fff"/>
  <path d="m110.98 253.3c-32.014-0.46975-63.913 18.402-78.666 47.201-22.009 38.721-26.332 84.37-26.275 128 0.72565 23.1 10.371 47.131 29.779 60.902 18.635 14.11 42.668 18.085 65.682 16.529 83.059-0.22173 166.15 0.82981 249.19-0.60956 30.615-3.0391 60.262-25.04 67.248-55.83 6.3882-25.86 2.3179-53.185-0.57089-79.399-5.4445-35.73-17.149-73.268-45.548-97.447-17.352-13.727-40.553-21.863-62.575-17.988-20.25 9.7034-37.178 25.995-59.272 31.893-35.512 12.142-76.071 4.8359-106.51-16.646-9.8956-5.7955-19.147-13.955-30.475-16.589-0.66685-0.0439-1.3363-0.0599-2.0039-0.0215zm205.97 18.055c26.636-0.26961 52.089 16.33 63.481 40.27 19.119 35.118 22.455 76.172 22.763 115.43-0.42924 19.611-8.8558 40.085-26.219 50.486-17.792 11.559-39.824 11.126-60.182 10.433-79.471-0.25887-158.97 0.70354-238.42-0.54213-24.769-2.3609-48.649-20.849-52.564-46.215-4.1142-22.522-0.774-45.563 1.7688-68.04 4.6022-30.916 14.04-63.528 37.704-85.406 13.145-11.05 30.94-17.73 48.1-15.564 21.821 14.069 43.983 29.34 69.754 34.766 40.566 9.9073 84.127-1.8622 117.49-26.562 5.2496-3.2717 10.43-7.1304 16.329-9.0535z" fill="#fff"/>
</svg>
